<svg width="54" height="53" viewBox="0 0 54 53" fill="none" xmlns="http://www.w3.org/2000/svg">
<path fill-rule="evenodd" clip-rule="evenodd" d="M50.5687 26.5884C50.5687 39.4612 40.1333 49.8966 27.2605 49.8966C14.3878 49.8966 3.95239 39.4612 3.95239 26.5884C3.95239 13.7157 14.3878 3.28027 27.2605 3.28027C40.1333 3.28027 50.5687 13.7157 50.5687 26.5884ZM53.5687 26.5884C53.5687 41.118 41.7901 52.8966 27.2605 52.8966C12.731 52.8966 0.952393 41.118 0.952393 26.5884C0.952393 12.0588 12.731 0.280273 27.2605 0.280273C41.7901 0.280273 53.5687 12.0588 53.5687 26.5884ZM39.3131 27.8531C39.9798 27.4682 39.9798 26.506 39.3131 26.1211L21.3862 15.7709C20.7195 15.386 19.8862 15.8672 19.8862 16.637L19.8862 37.3372C19.8862 38.107 20.7195 38.5881 21.3862 38.2032L39.3131 27.8531Z" fill="white" fill-opacity="0.9"/>
</svg>
